# xmcd
# 
# Track frame offsets:
#     150
#     19947
#     38015
#     53050
#     72882
#     94022
#     117225
#     141317
#     166917
#     182872
#     201922
#     221580
#     236437
#     257637
#     276975
# 
# Disc length: 4219
# 
# Revision: 6
# Processed by: cddbd v1.5.2PL0 Copyright (c) Steve Scherf et al.
# Submitted via: fre:ac v1.0.17
# 
DISCID=da10790f
DTITLE=山下達郎 - GREATEST HITS!
DYEAR=1997
DGENRE=JPop
TTITLE0=LOVELAND, ISLAND
TTITLE1=愛を描いて -LET'S KISS THE SUN-
TTITLE2=あまく危険な香り
TTITLE3=RIDE ON TIME (SINGLE VERSION)
TTITLE4=夏への扉
TTITLE5=FUNKY FLUSHIN'
TTITLE6=WINDY LADY
TTITLE7=BOMBER
TTITLE8=SOLID SLIDER
TTITLE9=LET'S DANCE BABY
TTITLE10=潮騒
TTITLE11=YOUR EYES
TTITLE12=LOVE SPACE
TTITLE13=SPARKLE
TTITLE14=9 MINUTES OF TATSURO YAMASHITA
EXTD=YEAR: 1997
EXTT0=
EXTT1=
EXTT2=
EXTT3=
EXTT4=
EXTT5=
EXTT6=
EXTT7=
EXTT8=
EXTT9=
EXTT10=
EXTT11=
EXTT12=
EXTT13=
EXTT14=
PLAYORDER=
